# xmcd
#
# Track frame offsets:
#	150
#	16754
#	28533
#	44860
#	57398
#	72210
#	89876
#	105374
#	121370
#	140932
#	152712
#	170201
#	185564
#	195793
#	210591
#
# Disc length: 2982 seconds
#
# Revision: 1
# Processed by: cddbd v1.5.1PL0 Copyright (c) Steve Scherf et al.
# Submitted via: audiograbber 1.83.01
#
DISCID=db0ba40f
DTITLE=Bo Grumpus - Blues and Rags
DYEAR=2001
DGENRE=Blues
TTITLE0=Cabaret Rag
TTITLE1=Stove Pipe Stomp
TTITLE2=I'm Nobody's Baby
TTITLE3=Shame on You
TTITLE4=Cielo Stellato
TTITLE5=Bogalusa Strut
TTITLE6=Medley of Old Favorites (Anna Let Me Hear From You, Mandy, Won't You Le
TTITLE6=t Me Be Your Beau?, I'm Thinking Of You All The While)
TTITLE7=Medley (Wild Cherries Rag, Mammy Blossum's Possum Party)
TTITLE8=Bo Grumpus Blues
TTITLE9=Gayest Manhattan
TTITLE10=When Reuben Comes to Town - Medley (When Reuben Comes to Town, La Lans
TTITLE10=onet Polka)
TTITLE11=Bueno Fiesta
TTITLE12=At the Ball, That's All
TTITLE13=Buzzin' the Bee - Medley (Buzzin' the Bee, Pray for the Lights to Go O
TTITLE13=ut)
TTITLE14=A Coon Band Contest
EXTD=Miss Anne Thrope Records\nCopyright 2001 by Ventresco/Devine/Eggers\n\nMAT
EXTD=R 1006 CD\n\nCredits\nCraig Ventresco, guitar and vovals\nPete Devine, washb
EXTD=oard.percussion\nMarty Eggers, bass\n
EXTT0=
EXTT1=
EXTT2=
EXTT3=
EXTT4=
EXTT5=
EXTT6=
EXTT7=
EXTT8=
EXTT9=
EXTT10=
EXTT11=
EXTT12=
EXTT13=
EXTT14=
PLAYORDER=
